<svg viewBox="0 50 795 419" id="svg2" xmlns="http://www.w3.org/2000/svg" xmlns:svg="http://www.w3.org/2000/svg">
  
  <defs id="defs3"/>
  
  <g id="layer1">
    <g id="g1383" transform="matrix(1.552377,0.000000,0.000000,1.552377,-192.8303,-20.75784)">
      <path d="M 308.60160 312.67798 A 7.5761442 6.8185296 0 1 1  293.44931,312.67798 A 7.5761442 6.8185296 0 1 1  308.60160 312.67798 z" id="path1340" style="fill:#626b8a;fill-opacity:1.0000000" transform="matrix(0.733333,0.000000,0.000000,0.703704,133.8090,-161.8855)"/>
      <path d="M 319.20821 339.69955 A 9.8489876 16.162441 0 1 1  299.51023,339.69955 A 9.8489876 16.162441 0 1 1  319.20821 339.69955 z" id="path1345" style="fill:#626b8a;fill-opacity:1.0000000" transform="matrix(1.153846,0.000000,0.000000,1.000000,3.416420,-261.6019)"/>
      <path d="M 319.71327 392.98511 A 8.3337584 39.648487 0 1 1  303.04576,392.98511 A 8.3337584 39.648487 0 1 1  319.71327 392.98511 z" id="path1347" style="fill:#626b8a;fill-opacity:1.0000000" transform="translate(49.49492,-261.0968)"/>
      <path d="M 315.16761 439.70465 A 3.2829957 8.0812206 0 1 1  308.60162,439.70465 A 3.2829957 8.0812206 0 1 1  315.16761 439.70465 z" id="path1349" style="fill:#626b8a;fill-opacity:1.0000000" transform="translate(49.49492,-260.0866)"/>
      <path d="M 315.16761 439.70465 A 3.2829957 8.0812206 0 1 1  308.60162,439.70465 A 3.2829957 8.0812206 0 1 1  315.16761 439.70465 z" id="path1351" style="fill:#626b8a;fill-opacity:1.0000000" transform="translate(49.74745,-243.4191)"/>
      <path d="M 315.16761 439.70465 A 3.2829957 8.0812206 0 1 1  308.60162,439.70465 A 3.2829957 8.0812206 0 1 1  315.16761 439.70465 z" id="path1353" style="fill:#626b8a;fill-opacity:1.0000000" transform="translate(50.75760,-226.7516)"/>
      <path d="M 315.16761 439.70465 A 3.2829957 8.0812206 0 1 1  308.60162,439.70465 A 3.2829957 8.0812206 0 1 1  315.16761 439.70465 z" id="path1355" style="fill:#626b8a;fill-opacity:1.0000000" transform="translate(51.76775,-209.5790)"/>
      <path d="M 315.16761 439.70465 A 3.2829957 8.0812206 0 1 1  308.60162,439.70465 A 3.2829957 8.0812206 0 1 1  315.16761 439.70465 z" id="path1357" style="fill:#626b8a;fill-opacity:1.0000000" transform="translate(52.77790,-192.4064)"/>
      <path d="M 315.16761 439.70465 A 3.2829957 8.0812206 0 1 1  308.60162,439.70465 A 3.2829957 8.0812206 0 1 1  315.16761 439.70465 z" id="path1359" style="fill:#626b8a;fill-opacity:1.0000000" transform="translate(53.78806,-175.7389)"/>
      <path d="M 315.16761 439.70465 A 3.2829957 8.0812206 0 1 1  308.60162,439.70465 A 3.2829957 8.0812206 0 1 1  315.16761 439.70465 z" id="path1361" style="fill:#626b8a;fill-opacity:1.0000000" transform="translate(55.30329,-159.5764)"/>
      <path d="M 315.16761 439.70465 A 3.2829957 8.0812206 0 1 1  308.60162,439.70465 A 3.2829957 8.0812206 0 1 1  315.16761 439.70465 z" id="path1363" style="fill:#626b8a;fill-opacity:1.0000000" transform="translate(56.81851,-142.9089)"/>
      <path d="M 357.39428,94.120910 C 161.08764,113.99842 133.29150,130.32296 138.29435,145.06821 C 142.49914,157.46127 224.02742,153.38202 257.95019,144.52661 L 337.14399,123.85335 C 346.08680,120.55704 351.60289,113.86489 354.99325,107.05429 L 357.39428,94.120910 z " id="path2924" style="fill:#626b8a;fill-opacity:0.34523806;fill-rule:evenodd;stroke:#626b8a;stroke-width:1.5001814px;stroke-linecap:butt;stroke-linejoin:miter;stroke-opacity:1.0000000"/>
      <rect height="2.6257372" id="rect2926" style="fill:#626b8a;fill-opacity:1.0000000;stroke:#626b8a;stroke-opacity:1.0000000" transform="matrix(0.976642,-0.214875,0.352097,0.935963,0.000000,0.000000)" width="14.357803" x="116.43443" y="157.28070"/>
      <path d="M 354.05885,122.47408 C 194.25907,175.39983 159.34639,205.70422 164.87414,216.95716 C 171.04053,229.51018 245.33617,211.04900 274.73556,195.81241 L 343.36938,160.24209 C 350.92667,155.20385 352.17051,148.39785 353.91942,140.58169 L 354.05885,122.47408 z " id="path1369" style="fill:#626b8a;fill-opacity:0.34523806;fill-rule:evenodd;stroke:#626b8a;stroke-width:1.5081146px;stroke-linecap:butt;stroke-linejoin:miter;stroke-opacity:1.0000000"/>
      <rect height="2.7687020" id="rect2152" style="fill:#626b8a;fill-opacity:1.0000000;stroke:#626b8a;stroke-opacity:1.0000000" transform="matrix(0.853970,-0.520323,0.557432,0.830223,0.000000,0.000000)" width="13.633104" x="49.167194" y="261.45853"/>
      <g id="g2916" transform="matrix(-0.975320,0.220798,0.220798,0.975320,581.7574,-316.6201)">
        <path d="M 304.43994,380.44135 C 198.86502,402.96640 99.497150,465.14715 102.78192,479.30178 C 107.30529,498.79370 175.56542,456.54788 230.63805,436.99401 L 297.78442,413.15328 C 305.34171,408.11504 306.22291,406.56970 307.97182,398.75354 L 304.43994,380.44135 z " id="path2918" style="fill:#626b8a;fill-opacity:0.34523806;fill-rule:evenodd;stroke:#626b8a;stroke-width:1.5081146px;stroke-linecap:butt;stroke-linejoin:miter;stroke-opacity:1.0000000"/>
        <rect height="2.7687011" id="rect2920" style="fill:#626b8a;fill-opacity:1.0000000;stroke:#626b8a;stroke-opacity:1.0000000" transform="matrix(0.853970,-0.520323,0.557432,0.830223,0.000000,0.000000)" width="13.633099" x="-135.38699" y="454.58170"/>
      </g>
      <path d="M 363.64772,94.131360 C 567.22321,78.756210 593.38839,86.080610 591.34162,101.51632 C 589.62136,114.48970 556.38471,130.76258 471.71190,124.55886 L 390.01197,118.57296 C 380.59954,117.07446 370.67553,108.72263 366.02815,102.69930 L 363.64772,94.131360 z " id="path2930" style="fill:#626b8a;fill-opacity:0.34523806;fill-rule:evenodd;stroke:#626b8a;stroke-width:1.5001802px;stroke-linecap:butt;stroke-linejoin:miter;stroke-opacity:1.0000000"/>
      <rect height="2.6257296" id="rect2932" style="fill:#626b8a;fill-opacity:1.0000000;stroke:#626b8a;stroke-opacity:1.0000000" transform="matrix(-0.999773,-2.129447e-2,-0.163801,0.986493,0.000000,0.000000)" width="14.357794" x="-566.80627" y="75.598907"/>
      <path d="M 351.51523,70.933640 C 352.12154,70.104290 332.82534,79.691590 330.71429,80.219350 C 328.15692,80.858690 317.01547,69.084230 315.71428,68.433640" id="path2938" style="fill:none;fill-opacity:0.75000000;fill-rule:evenodd;stroke:#626b8a;stroke-width:1.0000000px;stroke-linecap:butt;stroke-linejoin:miter;stroke-opacity:1.0000000"/>
      <path d="M 349.93115,75.890450 C 350.53746,75.061100 334.96063,91.286170 332.84958,91.813930 C 330.29221,92.453270 312.00790,92.821670 310.70671,92.171080" id="path4456" style="fill:none;fill-opacity:0.75000000;fill-rule:evenodd;stroke:#626b8a;stroke-width:1.0000000px;stroke-linecap:butt;stroke-linejoin:miter;stroke-opacity:1.0000000"/>
      <path d="M 370.90205,74.527790 C 370.29574,73.698440 389.86242,84.357160 391.97347,84.884920 C 394.53084,85.524260 402.10086,73.749800 403.40205,73.099210" id="path4458" style="fill:none;fill-opacity:0.75000000;fill-rule:evenodd;stroke:#626b8a;stroke-width:1.0000000px;stroke-linecap:butt;stroke-linejoin:miter;stroke-opacity:1.0000000"/>
      <path d="M 368.81818,68.834260 C 368.21187,68.004910 387.00298,69.857600 389.11403,70.385360 C 391.67140,71.024700 403.88428,58.178810 405.18547,57.528220" id="path4460" style="fill:none;fill-opacity:0.75000000;fill-rule:evenodd;stroke:#626b8a;stroke-width:1.0000000px;stroke-linecap:butt;stroke-linejoin:miter;stroke-opacity:1.0000000"/>
      <path d="M 315.16761 439.70465 A 3.2829957 8.0812206 0 1 1  308.60162,439.70465 A 3.2829957 8.0812206 0 1 1  315.16761 439.70465 z" id="path5978" style="fill:#626b8a;fill-opacity:1.0000000" transform="matrix(0.615385,0.000000,0.000000,0.562500,178.0368,62.59380)"/>
      <path d="M 308.60160 312.67798 A 7.5761442 6.8185296 0 1 1  293.44931,312.67798 A 7.5761442 6.8185296 0 1 1  308.60160 312.67798 z" id="path5980" style="fill:#626b8a;fill-opacity:1.0000000" transform="matrix(0.733333,0.000000,0.000000,0.703704,144.9208,-162.1381)"/>
    </g>
  </g>
</svg>